<?xml version="1.0" standalone="no"?><!DOCTYPE svg PUBLIC "-//W3C//DTD SVG 1.1//EN" "http://www.w3.org/Graphics/SVG/1.1/DTD/svg11.dtd"><svg t="1624988789685" class="icon" viewBox="0 0 1024 1024" version="1.1" xmlns="http://www.w3.org/2000/svg" p-id="2543" xmlns:xlink="http://www.w3.org/1999/xlink" width="64" height="64"><defs><style type="text/css"></style></defs><path d="M240 482.1h2.5v266H240zM242.5 482.1h2.5v266h-2.5zM245 482.1h2.5v266H245zM247.5 482.1h2.5v266h-2.5zM250 482.1h2.5v266H250zM252.5 482.1h2.5v266h-2.5zM255 482.1h2.5v266H255zM257.5 482.1h2.5v266h-2.5zM260 482.1h2.5v266H260zM262.5 482.1h2.5v266h-2.5zM265 482.1h2.5v266H265z" fill="#FFCE00" p-id="2544"></path><path d="M267.4 482.1h2.5v266h-2.5zM269.9 482.1h2.5v266h-2.5zM272.4 482.1h2.5v266h-2.5zM274.9 482.1h2.5v266h-2.5zM277.4 482.1h2.5v266h-2.5zM279.9 482.1h2.5v266h-2.5zM282.4 482.1h2.5v266h-2.5zM284.9 482.1h2.5v266h-2.5zM287.4 482.1h2.5v266h-2.5zM289.9 482.1h2.5v266h-2.5zM292.4 482.1h2.5v266h-2.5zM294.9 482.1h2.5v266h-2.5zM297.4 482.1h2.5v266h-2.5zM299.9 482.1h2.5v266h-2.5zM302.4 482.1h2.5v266h-2.5zM304.9 482.1h2.5v266h-2.5zM307.4 482.1h2.5v266h-2.5zM309.9 482.1h2.5v266h-2.5zM312.4 482.1h2.5v266h-2.5zM314.9 482.1h2.5v266h-2.5zM317.4 482.1h2.5v266h-2.5zM319.9 482.1h2.5v266h-2.5z" fill="#FFCE00" p-id="2545"></path><path d="M322.3 482.1h2.5v266h-2.5zM324.8 482.1h2.5v266h-2.5zM327.3 482.1h2.5v266h-2.5zM329.8 482.1h2.5v266h-2.5zM332.3 482.1h2.5v266h-2.5zM334.8 482.1h2.5v266h-2.5zM337.3 482.1h2.5v266h-2.5zM339.8 482.1h2.5v266h-2.5zM342.3 482.1h2.5v266h-2.5zM344.8 482.1h2.5v266h-2.5zM347.3 482.1h2.5v266h-2.5zM349.8 482.1h2.5v266h-2.5zM352.3 482.1h2.5v266h-2.5zM354.8 482.1h2.5v266h-2.5zM357.3 482.1h2.5v266h-2.5zM359.8 482.1h2.5v266h-2.5zM362.3 482.1h2.5v266h-2.5zM364.8 482.1h2.5v266h-2.5zM367.3 482.1h2.5v266h-2.5zM369.8 482.1h2.5v266h-2.5zM372.3 482.1h2.5v266h-2.5zM374.8 482.1h2.5v266h-2.5z" fill="#FFCE00" p-id="2546"></path><path d="M377.2 482.1h2.5v266h-2.5zM379.7 482.1h2.5v266h-2.5zM382.2 482.1h2.5v266h-2.5zM384.7 482.1h2.5v266h-2.5zM387.2 482.1h2.5v266h-2.5zM389.7 482.1h2.5v266h-2.5zM392.2 482.1h2.5v266h-2.5zM394.7 482.1h2.5v266h-2.5zM397.2 482.1h2.5v266h-2.5zM399.7 482.1h2.5v266h-2.5zM402.2 482.1h2.5v266h-2.5zM404.7 482.1h2.5v266h-2.5zM407.2 482.1h2.5v266h-2.5zM409.7 482.1h2.5v266h-2.5zM412.2 482.1h2.5v266h-2.5zM414.7 482.1h2.5v266h-2.5zM417.2 482.1h2.5v266h-2.5zM419.7 482.1h2.5v266h-2.5zM422.2 482.1h2.5v266h-2.5zM424.7 482.1h2.5v266h-2.5zM427.2 482.1h2.5v266h-2.5zM429.7 482.1h2.5v266h-2.5z" fill="#FFCE00" p-id="2547"></path><path d="M432.1 482.1h2.5v266h-2.5zM434.6 482.1h2.5v266h-2.5zM437.1 482.1h2.5v266h-2.5zM439.6 482.1h2.5v266h-2.5zM442.1 482.1h2.5v266h-2.5zM444.6 482.1h2.5v266h-2.5zM447.1 482.1h2.5v266h-2.5zM449.6 482.1h2.5v266h-2.5zM452.1 482.1h2.5v266h-2.5zM454.6 482.1h2.5v266h-2.5zM457.1 482.1h2.5v266h-2.5zM459.6 482.1h2.5v266h-2.5zM462.1 482.1h2.5v266h-2.5zM464.6 482.1h2.5v266h-2.5zM467.1 482.1h2.5v266h-2.5zM469.6 482.1h2.5v266h-2.5zM472.1 482.1h2.5v266h-2.5zM474.6 482.1h2.5v266h-2.5zM477.1 482.1h2.5v266h-2.5zM479.6 482.1h2.5v266h-2.5zM482.1 482.1h2.5v266h-2.5zM484.6 482.1h2.5v266h-2.5z" fill="#FFCE00" p-id="2548"></path><path d="M487 482.1h2.5v266H487zM489.5 482.1h2.5v266h-2.5zM492 482.1h2.5v266H492zM494.5 482.1h2.5v266h-2.5zM497 482.1h2.5v266H497zM499.5 482.1h2.5v266h-2.5zM502 482.1h2.5v266H502zM504.5 482.1h2.5v266h-2.5zM507 482.1h2.5v266H507zM509.5 482.1h2.5v266h-2.5zM512 482.1h2.5v266H512zM514.5 482.1h2.5v266h-2.5zM517 482.1h2.5v266H517zM519.5 482.1h2.5v266h-2.5zM522 482.1h2.5v266H522zM524.5 482.1h2.5v266h-2.5zM527 482.1h2.5v266H527zM529.5 482.1h2.5v266h-2.5zM532 482.1h2.5v266H532zM534.5 482.1h2.5v266h-2.5zM537 482.1h2.5v266H537z" fill="#FFCE00" p-id="2549"></path><path d="M539.4 482.1h2.5v266h-2.5zM541.9 482.1h2.5v266h-2.5zM544.4 482.1h2.5v266h-2.5zM546.9 482.1h2.5v266h-2.5zM549.4 482.1h2.5v266h-2.5zM551.9 482.1h2.5v266h-2.5zM554.4 482.1h2.5v266h-2.5zM556.9 482.1h2.5v266h-2.5zM559.4 482.1h2.5v266h-2.5zM561.9 482.1h2.5v266h-2.5zM564.4 482.1h2.5v266h-2.5zM566.9 482.1h2.5v266h-2.5zM569.4 482.1h2.5v266h-2.5zM571.9 482.1h2.5v266h-2.5zM574.4 482.1h2.5v266h-2.5zM576.9 482.1h2.5v266h-2.5zM579.4 482.1h2.5v266h-2.5zM581.9 482.1h2.5v266h-2.5zM584.4 482.1h2.5v266h-2.5zM586.9 482.1h2.5v266h-2.5zM589.4 482.1h2.5v266h-2.5zM591.9 482.1h2.5v266h-2.5z" fill="#FFCE00" p-id="2550"></path><path d="M594.3 482.1h2.5v266h-2.5zM596.8 482.1h2.5v266h-2.5zM599.3 482.1h2.5v266h-2.5zM601.8 482.1h2.5v266h-2.5zM604.3 482.1h2.5v266h-2.5zM606.8 482.1h2.5v266h-2.5zM609.3 482.1h2.5v266h-2.5zM611.8 482.1h2.5v266h-2.5zM614.3 482.1h2.5v266h-2.5zM616.8 482.1h2.5v266h-2.5zM619.3 482.1h2.5v266h-2.5zM621.8 482.1h2.5v266h-2.5zM624.3 482.1h2.5v266h-2.5zM626.8 482.1h2.5v266h-2.5zM629.3 482.1h2.5v266h-2.5zM631.8 482.1h2.5v266h-2.5zM634.3 482.1h2.5v266h-2.5zM636.8 482.1h2.5v266h-2.5zM639.3 482.1h2.5v266h-2.5zM641.8 482.1h2.5v266h-2.5zM644.3 482.1h2.5v266h-2.5zM646.8 482.1h2.5v266h-2.5z" fill="#FFCE00" p-id="2551"></path><path d="M649.2 482.1h2.5v266h-2.5zM651.7 482.1h2.5v266h-2.5zM654.2 482.1h2.5v266h-2.5zM656.7 482.1h2.5v266h-2.5zM659.2 482.1h2.5v266h-2.5zM661.7 482.1h2.5v266h-2.5zM664.2 482.1h2.5v266h-2.5zM666.7 482.1h2.5v266h-2.5zM669.2 482.1h2.5v266h-2.5zM671.7 482.1h2.5v266h-2.5zM674.2 482.1h2.5v266h-2.5zM676.7 482.1h2.5v266h-2.5zM679.2 482.1h2.5v266h-2.5zM681.7 482.1h2.5v266h-2.5zM684.2 482.1h2.5v266h-2.5zM686.7 482.1h2.5v266h-2.5zM689.2 482.1h2.5v266h-2.5zM691.7 482.1h2.5v266h-2.5zM694.2 482.1h2.5v266h-2.5zM696.7 482.1h2.5v266h-2.5zM699.2 482.1h2.5v266h-2.5zM701.7 482.1h2.5v266h-2.5z" fill="#FFCE00" p-id="2552"></path><path d="M704.1 482.1h2.5v266h-2.5zM706.6 482.1h2.5v266h-2.5zM709.1 482.1h2.5v266h-2.5zM711.6 482.1h2.5v266h-2.5zM714.1 482.1h2.5v266h-2.5zM716.6 482.1h2.5v266h-2.5zM719.1 482.1h2.5v266h-2.5zM721.6 482.1h2.5v266h-2.5zM724.1 482.1h2.5v266h-2.5zM726.6 482.1h2.5v266h-2.5zM729.1 482.1h2.5v266h-2.5zM731.6 482.1h2.5v266h-2.5zM734.1 482.1h2.5v266h-2.5zM736.6 482.1h2.5v266h-2.5zM739.1 482.1h2.5v266h-2.5zM741.6 482.1h2.5v266h-2.5zM744.1 482.1h2.5v266h-2.5zM746.6 482.1h2.5v266h-2.5zM749.1 482.1h2.5v266h-2.5zM751.6 482.1h2.5v266h-2.5zM754.1 482.1h2.5v266h-2.5zM756.6 482.1h2.5v266h-2.5z" fill="#FFCE00" p-id="2553"></path><path d="M759 482.1h2.5v266H759zM761.5 482.1h2.5v266h-2.5zM764 482.1h2.5v266H764zM766.5 482.1h2.5v266h-2.5zM769 482.1h2.5v266H769zM771.5 482.1h2.5v266h-2.5zM774 482.1h2.5v266H774zM776.5 482.1h2.5v266h-2.5zM779 482.1h2.5v266H779zM781.5 482.1h2.5v266h-2.5z" fill="#FFCE00" p-id="2554"></path><path d="M861.3 911.8H162.7c-31.4 0-57-25.6-57-57V375.3c0-31.4 25.6-57 57-57h698.6c31.4 0 57 25.6 57 57v479.5c0 31.4-25.6 57-57 57z m-665.6-90h632.6V408.3H195.7v413.5z" fill="#242F44" p-id="2555"></path><path d="M362.1 893.5c-24.9 0-45-20.1-45-45V402c0-24.9 20.1-45 45-45s45 20.1 45 45v446.5c0 24.8-20.1 45-45 45zM661.9 893.5c-24.9 0-45-20.1-45-45V402c0-24.9 20.1-45 45-45s45 20.1 45 45v446.5c0 24.8-20.2 45-45 45z" fill="#242F44" p-id="2556"></path><path d="M682 357c-24.9 0-45-20.1-45-45 0-60.5-49.2-109.8-109.8-109.8S417.4 251.4 417.4 312c0 24.9-20.1 45-45 45s-45-20.1-45-45c0-110.1 89.6-199.8 199.8-199.8S727 201.8 727 312c0 24.8-20.2 45-45 45z" fill="#242F44" p-id="2557"></path></svg>