<?xml version="1.0" standalone="no"?><!DOCTYPE svg PUBLIC "-//W3C//DTD SVG 1.1//EN" "http://www.w3.org/Graphics/SVG/1.1/DTD/svg11.dtd"><svg t="1624988764923" class="icon" viewBox="0 0 1024 1024" version="1.1" xmlns="http://www.w3.org/2000/svg" p-id="2389" xmlns:xlink="http://www.w3.org/1999/xlink" width="64" height="64"><defs><style type="text/css"></style></defs><path d="M561.1 250.2m-186.3 0a186.3 186.3 0 1 0 372.6 0 186.3 186.3 0 1 0-372.6 0Z" fill="#FFCE00" p-id="2390"></path><path d="M459.7 906.5c-11.5 0-23-4.4-31.8-13.2L115.7 581.1c-8.4-8.4-13.2-19.9-13.2-31.8s4.7-23.4 13.2-31.8l383.2-383.2c8.4-8.4 19.9-13.2 31.8-13.2h0.8l306.9 5.2c24.2 0.4 43.8 20 44.2 44.2l5.2 306.9c0.2 12.2-4.5 24-13.2 32.6L491.5 893.3c-8.8 8.8-20.3 13.2-31.8 13.2zM211.2 549.3l248.5 248.5L797.6 460l-4.2-244.3-244.3-4.2-337.9 337.8z" fill="#242F44" p-id="2391"></path></svg>