<?xml version="1.0" standalone="no"?><!DOCTYPE svg PUBLIC "-//W3C//DTD SVG 1.1//EN" "http://www.w3.org/Graphics/SVG/1.1/DTD/svg11.dtd"><svg t="1624988741490" class="icon" viewBox="0 0 1024 1024" version="1.1" xmlns="http://www.w3.org/2000/svg" p-id="1924" xmlns:xlink="http://www.w3.org/1999/xlink" width="64" height="64"><defs><style type="text/css"></style></defs><path d="M869.7 753.2H154.3c-31.4 0-57-25.6-57-57V173.5c0-31.4 25.6-57 57-57h715.4c31.4 0 57 25.6 57 57v522.6c0 31.5-25.6 57.1-57 57.1z m-682.4-90h649.4V206.5H187.3v456.7z" fill="#242F44" p-id="1925"></path><path d="M696.3 580H327.7c-6.6 0-12-5.4-12-12V301.7c0-6.6 5.4-12 12-12h368.7c6.6 0 12 5.4 12 12V568c-0.1 6.6-5.5 12-12.1 12z" fill="#FFCE00" p-id="1926"></path><path d="M701.5 907.5h-379c-24.9 0-45-20.1-45-45s20.1-45 45-45h379c24.9 0 45 20.1 45 45s-20.1 45-45 45z" fill="#242F44" p-id="1927"></path></svg>