<?xml version="1.0" standalone="no"?><!DOCTYPE svg PUBLIC "-//W3C//DTD SVG 1.1//EN" "http://www.w3.org/Graphics/SVG/1.1/DTD/svg11.dtd"><svg t="1624988622250" class="icon" viewBox="0 0 1024 1024" version="1.1" xmlns="http://www.w3.org/2000/svg" p-id="1466" xmlns:xlink="http://www.w3.org/1999/xlink" width="64" height="64"><defs><style type="text/css"></style></defs><path d="M346.1 321.3h255.4v224.8H346.1z" fill="#FFCE00" p-id="1467"></path><path d="M789.5 885.2h-555c-24.9 0-45-20.1-45-45V183.8c0-24.9 20.1-45 45-45H641c11.1 0 21.9 4.1 30.1 11.6l84 75.8c0.4 0.4 0.8 0.7 1.2 1.1l64.5 62.4c8.8 8.5 13.7 20.1 13.7 32.3v518.1c0 24.9-20.2 45.1-45 45.1z m-510-90h465V341.1l-50.2-48.6-70.6-63.7H279.5v566.4z" fill="#242F44" p-id="1468"></path><path d="M660.7 488.3H363.3c-24.9 0-45-20.1-45-45s20.1-45 45-45h297.4c24.9 0 45 20.1 45 45s-20.1 45-45 45z" fill="#242F44" p-id="1469"></path><path d="M660.7 488.3H363.3c-24.9 0-45-20.1-45-45s20.1-45 45-45h297.4c24.9 0 45 20.1 45 45s-20.1 45-45 45zM660.7 698.7H363.3c-24.9 0-45-20.1-45-45s20.1-45 45-45h297.4c24.9 0 45 20.1 45 45s-20.1 45-45 45z" fill="#242F44" p-id="1470"></path></svg>